<mxfile host="app.diagrams.net" modified="2022-10-01T07:15:00.621Z" agent="5.0 (Windows NT 10.0; Win64; x64) AppleWebKit/537.36 (KHTML, like Gecko) Chrome/106.0.0.0 Safari/537.36" etag="54gIqvATDKs_3Sk-h_ja" version="20.4.0" type="github">
  <diagram id="C5RBs43oDa-KdzZeNtuy" name="Page-1">
    <mxGraphModel dx="1102" dy="626" grid="1" gridSize="10" guides="1" tooltips="1" connect="1" arrows="1" fold="1" page="1" pageScale="1" pageWidth="827" pageHeight="1169" math="0" shadow="0">
      <root>
        <mxCell id="WIyWlLk6GJQsqaUBKTNV-0" />
        <mxCell id="WIyWlLk6GJQsqaUBKTNV-1" parent="WIyWlLk6GJQsqaUBKTNV-0" />
        <mxCell id="GfQH2LzpMEKR52SkH0QB-68" value="" style="group;" parent="WIyWlLk6GJQsqaUBKTNV-1" vertex="1" connectable="0">
          <mxGeometry x="90" y="30" width="640" height="410" as="geometry" />
        </mxCell>
        <mxCell id="WIyWlLk6GJQsqaUBKTNV-3" value="Random Tabular Data" style="rounded=1;whiteSpace=wrap;html=1;fontSize=12;glass=0;strokeWidth=1;shadow=0;" parent="GfQH2LzpMEKR52SkH0QB-68" vertex="1">
          <mxGeometry x="62.54071661237786" y="46.19462108888091" width="125.08143322475571" height="34.64813132486849" as="geometry" />
        </mxCell>
        <mxCell id="GfQH2LzpMEKR52SkH0QB-6" value="Discriminator" style="rounded=0;whiteSpace=wrap;html=1;fillColor=#6d8764;fontColor=#ffffff;strokeColor=#3A5431;" parent="GfQH2LzpMEKR52SkH0QB-68" vertex="1">
          <mxGeometry x="62.54071661237786" y="193.44917921957196" width="281.43322475570034" height="51.97219698730272" as="geometry" />
        </mxCell>
        <mxCell id="GfQH2LzpMEKR52SkH0QB-7" value="Generator" style="rounded=1;whiteSpace=wrap;html=1;fillColor=#6d8764;fontColor=#ffffff;strokeColor=#3A5431;" parent="GfQH2LzpMEKR52SkH0QB-68" vertex="1">
          <mxGeometry x="62.54071661237786" y="124.15291656983499" width="125.08143322475571" height="34.64813132486849" as="geometry" />
        </mxCell>
        <mxCell id="GfQH2LzpMEKR52SkH0QB-18" value="Generator&amp;nbsp;Loss" style="rounded=0;whiteSpace=wrap;html=1;fillColor=#b1ddf0;strokeColor=#10739e;" parent="GfQH2LzpMEKR52SkH0QB-68" vertex="1">
          <mxGeometry x="62" y="280.07" width="102.08" height="25.99" as="geometry" />
        </mxCell>
        <mxCell id="GfQH2LzpMEKR52SkH0QB-19" value="Discriminator Loss" style="rounded=0;whiteSpace=wrap;html=1;fillColor=#b1ddf0;strokeColor=#10739e;" parent="GfQH2LzpMEKR52SkH0QB-68" vertex="1">
          <mxGeometry x="164.08" y="280.07" width="107.92" height="25.99" as="geometry" />
        </mxCell>
        <mxCell id="GfQH2LzpMEKR52SkH0QB-22" value="" style="endArrow=classic;html=1;rounded=0;" parent="GfQH2LzpMEKR52SkH0QB-68" edge="1">
          <mxGeometry width="50" height="50" relative="1" as="geometry">
            <mxPoint x="124.64364820846907" y="80.8427524137494" as="sourcePoint" />
            <mxPoint x="124.64364820846907" y="124.15291656983499" as="targetPoint" />
          </mxGeometry>
        </mxCell>
        <mxCell id="GfQH2LzpMEKR52SkH0QB-23" value="" style="endArrow=classic;html=1;rounded=0;exitX=0.5;exitY=1;exitDx=0;exitDy=0;" parent="GfQH2LzpMEKR52SkH0QB-68" source="GfQH2LzpMEKR52SkH0QB-7" edge="1">
          <mxGeometry width="50" height="50" relative="1" as="geometry">
            <mxPoint x="125.08143322475571" y="167.4630807259206" as="sourcePoint" />
            <mxPoint x="124.64364820846923" y="193.44917921957196" as="targetPoint" />
          </mxGeometry>
        </mxCell>
        <mxCell id="GfQH2LzpMEKR52SkH0QB-25" value="" style="endArrow=classic;html=1;rounded=0;exitX=0.5;exitY=1;exitDx=0;exitDy=0;" parent="GfQH2LzpMEKR52SkH0QB-68" edge="1">
          <mxGeometry width="50" height="50" relative="1" as="geometry">
            <mxPoint x="281.43322475570034" y="158.8010478947035" as="sourcePoint" />
            <mxPoint x="280.9954397394139" y="193.44917921957196" as="targetPoint" />
          </mxGeometry>
        </mxCell>
        <mxCell id="GfQH2LzpMEKR52SkH0QB-26" value="" style="endArrow=classic;html=1;rounded=0;exitX=0.5;exitY=1;exitDx=0;exitDy=0;" parent="GfQH2LzpMEKR52SkH0QB-68" edge="1">
          <mxGeometry width="50" height="50" relative="1" as="geometry">
            <mxPoint x="333.55048859934857" y="245.4213762068747" as="sourcePoint" />
            <mxPoint x="333.11270358306206" y="280.06950753174317" as="targetPoint" />
          </mxGeometry>
        </mxCell>
        <mxCell id="GfQH2LzpMEKR52SkH0QB-27" value="" style="endArrow=classic;html=1;rounded=0;exitX=0.5;exitY=1;exitDx=0;exitDy=0;" parent="GfQH2LzpMEKR52SkH0QB-68" edge="1">
          <mxGeometry width="50" height="50" relative="1" as="geometry">
            <mxPoint x="125.08143322475571" y="245.4213762068747" as="sourcePoint" />
            <mxPoint x="124.64364820846923" y="280.06950753174317" as="targetPoint" />
          </mxGeometry>
        </mxCell>
        <mxCell id="GfQH2LzpMEKR52SkH0QB-48" value="" style="group" parent="GfQH2LzpMEKR52SkH0QB-68" vertex="1" connectable="0">
          <mxGeometry x="281.43322475570034" y="280.06950753174317" width="271.0097719869707" height="129.93049246825683" as="geometry" />
        </mxCell>
        <mxCell id="GfQH2LzpMEKR52SkH0QB-35" value="" style="group" parent="GfQH2LzpMEKR52SkH0QB-48" vertex="1" connectable="0">
          <mxGeometry width="162.60586319218243" height="129.93049246825683" as="geometry" />
        </mxCell>
        <mxCell id="GfQH2LzpMEKR52SkH0QB-3" value="Synthetic Data" style="rounded=1;whiteSpace=wrap;html=1;fontSize=12;glass=0;strokeWidth=1;shadow=0;" parent="GfQH2LzpMEKR52SkH0QB-35" vertex="1">
          <mxGeometry x="27.100977198697073" width="108.4039087947883" height="28.87344277072374" as="geometry" />
        </mxCell>
        <mxCell id="GfQH2LzpMEKR52SkH0QB-28" value="X_train" style="rounded=0;whiteSpace=wrap;html=1;" parent="GfQH2LzpMEKR52SkH0QB-35" vertex="1">
          <mxGeometry y="50.528524848766544" width="72.26927252985887" height="21.655082078042806" as="geometry" />
        </mxCell>
        <mxCell id="GfQH2LzpMEKR52SkH0QB-29" value="y_train" style="rounded=0;whiteSpace=wrap;html=1;" parent="GfQH2LzpMEKR52SkH0QB-35" vertex="1">
          <mxGeometry x="90.33659066232356" y="50.528524848766544" width="72.26927252985887" height="21.655082078042806" as="geometry" />
        </mxCell>
        <mxCell id="GfQH2LzpMEKR52SkH0QB-30" value="" style="endArrow=classic;html=1;rounded=0;" parent="GfQH2LzpMEKR52SkH0QB-35" edge="1">
          <mxGeometry width="50" height="50" relative="1" as="geometry">
            <mxPoint x="36.13463626492943" y="28.87344277072374" as="sourcePoint" />
            <mxPoint x="36.134636264929526" y="50.528524848766544" as="targetPoint" />
          </mxGeometry>
        </mxCell>
        <mxCell id="GfQH2LzpMEKR52SkH0QB-31" value="" style="endArrow=classic;html=1;rounded=0;" parent="GfQH2LzpMEKR52SkH0QB-35" edge="1">
          <mxGeometry width="50" height="50" relative="1" as="geometry">
            <mxPoint x="126.47122692725301" y="28.87344277072374" as="sourcePoint" />
            <mxPoint x="126.47122692725301" y="50.528524848766544" as="targetPoint" />
          </mxGeometry>
        </mxCell>
        <mxCell id="GfQH2LzpMEKR52SkH0QB-32" value="Random Forest Classifier" style="rounded=0;whiteSpace=wrap;html=1;fillColor=#f8cecc;strokeColor=#b85450;" parent="GfQH2LzpMEKR52SkH0QB-35" vertex="1">
          <mxGeometry y="93.83868900485216" width="162.60586319218243" height="36.09180346340468" as="geometry" />
        </mxCell>
        <mxCell id="GfQH2LzpMEKR52SkH0QB-33" value="" style="endArrow=classic;html=1;rounded=0;" parent="GfQH2LzpMEKR52SkH0QB-35" edge="1">
          <mxGeometry width="50" height="50" relative="1" as="geometry">
            <mxPoint x="36.13463626492943" y="72.18360692680936" as="sourcePoint" />
            <mxPoint x="36.13463626492943" y="93.83868900485216" as="targetPoint" />
          </mxGeometry>
        </mxCell>
        <mxCell id="GfQH2LzpMEKR52SkH0QB-34" value="" style="endArrow=classic;html=1;rounded=0;" parent="GfQH2LzpMEKR52SkH0QB-35" edge="1">
          <mxGeometry width="50" height="50" relative="1" as="geometry">
            <mxPoint x="126.47122692725301" y="72.18360692680936" as="sourcePoint" />
            <mxPoint x="126.47122692725301" y="93.83868900485216" as="targetPoint" />
          </mxGeometry>
        </mxCell>
        <mxCell id="GfQH2LzpMEKR52SkH0QB-46" value="" style="endArrow=classic;html=1;rounded=0;" parent="GfQH2LzpMEKR52SkH0QB-48" edge="1">
          <mxGeometry width="50" height="50" relative="1" as="geometry">
            <mxPoint x="162.60586319218243" y="115.49377108289497" as="sourcePoint" />
            <mxPoint x="198.74049945711184" y="115.49377108289497" as="targetPoint" />
          </mxGeometry>
        </mxCell>
        <mxCell id="GfQH2LzpMEKR52SkH0QB-47" value="RMSE" style="rounded=0;whiteSpace=wrap;html=1;fillColor=#ffe6cc;strokeColor=#d79b00;" parent="GfQH2LzpMEKR52SkH0QB-48" vertex="1">
          <mxGeometry x="198.74049945711184" y="101.05704969753309" width="72.26927252985887" height="21.655082078042806" as="geometry" />
        </mxCell>
        <mxCell id="GfQH2LzpMEKR52SkH0QB-49" value="" style="group" parent="GfQH2LzpMEKR52SkH0QB-68" vertex="1" connectable="0">
          <mxGeometry x="208.46905537459284" y="28.870555426446668" width="271.0097719869707" height="129.93049246825683" as="geometry" />
        </mxCell>
        <mxCell id="GfQH2LzpMEKR52SkH0QB-50" value="" style="group" parent="GfQH2LzpMEKR52SkH0QB-49" vertex="1" connectable="0">
          <mxGeometry width="162.60586319218243" height="129.93049246825683" as="geometry" />
        </mxCell>
        <mxCell id="GfQH2LzpMEKR52SkH0QB-52" value="X_train" style="rounded=0;whiteSpace=wrap;html=1;" parent="GfQH2LzpMEKR52SkH0QB-50" vertex="1">
          <mxGeometry y="50.528524848766544" width="72.26927252985887" height="21.655082078042806" as="geometry" />
        </mxCell>
        <mxCell id="GfQH2LzpMEKR52SkH0QB-53" value="y_train" style="rounded=0;whiteSpace=wrap;html=1;" parent="GfQH2LzpMEKR52SkH0QB-50" vertex="1">
          <mxGeometry x="90.33659066232356" y="50.528524848766544" width="72.26927252985887" height="21.655082078042806" as="geometry" />
        </mxCell>
        <mxCell id="GfQH2LzpMEKR52SkH0QB-56" value="Random Forest Classifier" style="rounded=0;whiteSpace=wrap;html=1;fillColor=#f8cecc;strokeColor=#b85450;" parent="GfQH2LzpMEKR52SkH0QB-50" vertex="1">
          <mxGeometry y="93.83868900485216" width="162.60586319218243" height="36.09180346340468" as="geometry" />
        </mxCell>
        <mxCell id="GfQH2LzpMEKR52SkH0QB-57" value="" style="endArrow=classic;html=1;rounded=0;" parent="GfQH2LzpMEKR52SkH0QB-50" edge="1">
          <mxGeometry width="50" height="50" relative="1" as="geometry">
            <mxPoint x="36.13463626492943" y="72.18360692680936" as="sourcePoint" />
            <mxPoint x="36.13463626492943" y="93.83868900485216" as="targetPoint" />
          </mxGeometry>
        </mxCell>
        <mxCell id="GfQH2LzpMEKR52SkH0QB-58" value="" style="endArrow=classic;html=1;rounded=0;" parent="GfQH2LzpMEKR52SkH0QB-50" edge="1">
          <mxGeometry width="50" height="50" relative="1" as="geometry">
            <mxPoint x="126.47122692725301" y="72.18360692680936" as="sourcePoint" />
            <mxPoint x="126.47122692725301" y="93.83868900485216" as="targetPoint" />
          </mxGeometry>
        </mxCell>
        <mxCell id="GfQH2LzpMEKR52SkH0QB-65" value="" style="edgeStyle=segmentEdgeStyle;endArrow=classic;html=1;rounded=0;exitX=0;exitY=0.25;exitDx=0;exitDy=0;" parent="GfQH2LzpMEKR52SkH0QB-50" source="GfQH2LzpMEKR52SkH0QB-51" edge="1">
          <mxGeometry width="50" height="50" relative="1" as="geometry">
            <mxPoint x="162.60586319218243" y="-16.605116937443224" as="sourcePoint" />
            <mxPoint x="125.08143322475571" y="51.97219698730272" as="targetPoint" />
          </mxGeometry>
        </mxCell>
        <mxCell id="GfQH2LzpMEKR52SkH0QB-59" value="" style="endArrow=classic;html=1;rounded=0;" parent="GfQH2LzpMEKR52SkH0QB-49" edge="1">
          <mxGeometry width="50" height="50" relative="1" as="geometry">
            <mxPoint x="162.60586319218243" y="115.49377108289497" as="sourcePoint" />
            <mxPoint x="198.74049945711184" y="115.49377108289497" as="targetPoint" />
          </mxGeometry>
        </mxCell>
        <mxCell id="GfQH2LzpMEKR52SkH0QB-60" value="RMSE" style="rounded=0;whiteSpace=wrap;html=1;fillColor=#ffe6cc;strokeColor=#d79b00;" parent="GfQH2LzpMEKR52SkH0QB-49" vertex="1">
          <mxGeometry x="198.74049945711184" y="101.05704969753309" width="72.26927252985887" height="21.655082078042806" as="geometry" />
        </mxCell>
        <mxCell id="GfQH2LzpMEKR52SkH0QB-51" value="Dataset.csv" style="rounded=1;whiteSpace=wrap;html=1;fontSize=12;glass=0;strokeWidth=1;shadow=0;" parent="GfQH2LzpMEKR52SkH0QB-68" vertex="1">
          <mxGeometry x="531.5960912052118" width="108.4039087947883" height="28.87344277072374" as="geometry" />
        </mxCell>
        <mxCell id="GfQH2LzpMEKR52SkH0QB-61" value="" style="edgeStyle=segmentEdgeStyle;endArrow=classic;html=1;rounded=0;exitX=0.5;exitY=1;exitDx=0;exitDy=0;" parent="GfQH2LzpMEKR52SkH0QB-68" source="GfQH2LzpMEKR52SkH0QB-51" edge="1">
          <mxGeometry width="50" height="50" relative="1" as="geometry">
            <mxPoint x="531.5960912052118" y="115.49088373861787" as="sourcePoint" />
            <mxPoint x="416.9381107491857" y="297.3935731941774" as="targetPoint" />
            <Array as="points">
              <mxPoint x="583.71335504886" y="28.870555426446668" />
            </Array>
          </mxGeometry>
        </mxCell>
        <mxCell id="GfQH2LzpMEKR52SkH0QB-67" value="" style="edgeStyle=segmentEdgeStyle;endArrow=classic;html=1;rounded=0;exitX=0;exitY=0.25;exitDx=0;exitDy=0;" parent="GfQH2LzpMEKR52SkH0QB-68" edge="1">
          <mxGeometry width="50" height="50" relative="1" as="geometry">
            <mxPoint x="442.99674267100977" y="7.21836069268093" as="sourcePoint" />
            <mxPoint x="244.95114006514657" y="80.8427524137494" as="targetPoint" />
          </mxGeometry>
        </mxCell>
        <mxCell id="goVMsZsf2IOnhVVjbLRQ-3" value="" style="endArrow=classic;html=1;rounded=0;" edge="1" parent="GfQH2LzpMEKR52SkH0QB-68">
          <mxGeometry width="50" height="50" relative="1" as="geometry">
            <mxPoint x="479.48" y="141.98" as="sourcePoint" />
            <mxPoint x="600" y="141" as="targetPoint" />
          </mxGeometry>
        </mxCell>
        <mxCell id="goVMsZsf2IOnhVVjbLRQ-4" value="" style="endArrow=classic;html=1;rounded=0;exitX=1;exitY=0.5;exitDx=0;exitDy=0;" edge="1" parent="GfQH2LzpMEKR52SkH0QB-68" source="GfQH2LzpMEKR52SkH0QB-47">
          <mxGeometry width="50" height="50" relative="1" as="geometry">
            <mxPoint x="560" y="390" as="sourcePoint" />
            <mxPoint x="601" y="370" as="targetPoint" />
            <Array as="points">
              <mxPoint x="601" y="391" />
            </Array>
          </mxGeometry>
        </mxCell>
        <mxCell id="goVMsZsf2IOnhVVjbLRQ-6" value="" style="endArrow=classic;html=1;rounded=0;" edge="1" parent="GfQH2LzpMEKR52SkH0QB-68">
          <mxGeometry width="50" height="50" relative="1" as="geometry">
            <mxPoint x="600" y="141.96" as="sourcePoint" />
            <mxPoint x="600" y="320" as="targetPoint" />
          </mxGeometry>
        </mxCell>
        <mxCell id="goVMsZsf2IOnhVVjbLRQ-8" value="Delta RMSE" style="whiteSpace=wrap;html=1;fillColor=#ffe6cc;strokeColor=#d79b00;" vertex="1" parent="WIyWlLk6GJQsqaUBKTNV-1">
          <mxGeometry x="649" y="350" width="80" height="50" as="geometry" />
        </mxCell>
      </root>
    </mxGraphModel>
  </diagram>
</mxfile>
